{"title":"007 Casino Royale 2006 DVDRip (Eesti Subtiitrid) FLY635","uid":8112817,"size":1064925113,"categoryP":"video","categoryS":"movies","magnet":"?xt=urn:btih:6683f65bec5059958489cf85869159ace1c2cc67&amp;dn=007+Casino+Royale+2006+DVDRip+%28Eesti+Subtiitrid%29+FLY635&amp;tr=udp%3A%2F%2Ftracker.openbittorrent.com%3A80&amp;tr=udp%3A%2F%2Fopen.demonii.com%3A1337&amp;tr=udp%3A%2F%2Ftracker.coppersurfer.tk%3A6969&amp;tr=udp%3A%2F%2Fexodus.desync.com%3A6969","seeders":1,"leechers":0,"uploader":"FLY635","files":-1,"time":1360228590,"description":"In his first mission as 007, James Bond must win a poker game at The Casino Royale, in Montenegro, to stop a criminal who works as a banker to the terrorist organizations of the world, from financing crime and terrorism across the globe.\n &lt;a href=&quot;\nhttp://image.bayimg.com/645a5c7728986e3a8f706576a9fb2ff661692372.jpg&quot; rel=&quot;nofollow&quot; target=&quot;_NEW&quot;&gt;\nhttp://image.bayimg.com/645a5c7728986e3a8f706576a9fb2ff661692372.jpg&lt;/a&gt;\n\nVideo\nID                                       : 0\nFormat                                   : MPEG-4 Visual\nFormat profile                           : Advanced Simple@L5\nFormat settings, BVOP                    : 2\nFormat settings, QPel                    : No\nFormat settings, GMC                     : No warppoints\nFormat settings, Matrix                  : Default (H.263)\nMuxing mode                              : Packed bitstream\nCodec ID                                 : XVID\nCodec ID/Hint                            : XviD\nDuration                                 : 2h 18mn\nBit rate                                 : 852 Kbps\nWidth                                    : 624 pixels\nHeight                                   : 352 pixels\nDisplay aspect ratio                     : 16:9\nOriginal display aspect ratio            : 16:9\nFrame rate                               : 25.000 fps\nColor space                              : YUV\nChroma subsampling                       : 4:2:0\nBit depth                                : 8 bits\nScan type                                : Progressive\nCompression mode                         : Lossy\nBits/(Pixel*Frame)                       : 0.155\nStream size                              : 845 MiB (83%)\nWriting library                          : XviD 63\n\nAudio\nID                                       : 1\nFormat                                   : MPEG Audio\nFormat version                           : Version 1\nFormat profile                           : Layer 3\nCodec ID                                 : 55\nCodec ID/Hint                            : MP3\nDuration                                 : 2h 18mn\nBit rate mode                            : Constant\nBit rate                                 : 160 Kbps\nChannel(s)                               : 2 channels\nSampling rate                            : 44.1 KHz\nCompression mode                         : Lossy\nDelay relative to video                  : 40ms\nStream size                              : 159 MiB (16%)\nAlignment                                : Aligned on interleaves\nInterleave, duration                     : 26 ms (0.65 video frame)\nInterleave, preload duration             : 522 ms\nWriting library                          : LAME3.98.4\n\n\nAudio                                    : English\nSubtitle                                 : Estonia (.SRT)\n\nSEED AND COMMENT!!!!\t\n\n","torrent":{"xt":"urn:btih:6683f65bec5059958489cf85869159ace1c2cc67","amp;dn":"007+Casino+Royale+2006+DVDRip+%28Eesti+Subtiitrid%29+FLY635","amp;tr":["udp%3A%2F%2Ftracker.openbittorrent.com%3A80","udp%3A%2F%2Fopen.demonii.com%3A1337","udp%3A%2F%2Ftracker.coppersurfer.tk%3A6969","udp%3A%2F%2Fexodus.desync.com%3A6969"],"infoHash":"6683f65bec5059958489cf85869159ace1c2cc67","infoHashBuffer":{"type":"Buffer","data":[102,131,246,91,236,80,89,149,132,137,207,133,134,145,89,172,225,194,204,103]},"announce":[],"urlList":[]}}